<svg xmlns="http://www.w3.org/2000/svg" viewBox="0 0 459 96" role="img" aria-label="TeenPilot">
  <!-- TeenPilot horizontal lockup. Ink via CSS color; accent via the tp-accent custom property (default brand green).
       Wordmark is OUTLINED Syne 800 — no font dependency. -->
  <g color="var(--tp-accent, #4ade80)">
  <path fill="currentColor" opacity=".1"  d="M80 16 L16 38 L49 47 Z"/>
  <path fill="currentColor" opacity=".055" d="M80 16 L49 47 L58 80 Z"/>
  <g stroke="currentColor" stroke-linecap="round" fill="none">
    <path d="M16 38 L80 16" stroke-width="1.9" opacity=".72"/>
    <path d="M80 16 L58 80" stroke-width="1.9" opacity=".72"/>
    <path d="M16 38 L49 47" stroke-width="1.7" opacity=".42"/>
    <path d="M49 47 L58 80" stroke-width="1.7" opacity=".42"/>
    <path d="M80 16 L49 47" stroke-width="1.5" opacity=".28"/>
  </g>
  <g fill="currentColor">
    <circle cx="80" cy="16" r="5.4"/>
    <circle cx="16" cy="38" r="3.6"/>
    <circle cx="58" cy="80" r="3.6"/>
    <circle cx="49" cy="47" r="3"/>
    <circle cx="54" cy="25" r="2.1" opacity=".85"/>
    <circle cx="71" cy="42" r="2.1" opacity=".85"/>
  </g></g>
  <g transform="translate(123 62.5)">
    <path transform="translate(0.00 0) scale(0.04462 -0.04462)" fill="currentColor" d="M30 640L1070 640L1070 450L30 450ZM425 463L675 463L675 0L425 0Z"/>
    <path transform="translate(45.69 0) scale(0.04462 -0.04462)" fill="currentColor" d="M721 176L957 176Q948 118 899.5 75Q851 32 758.5 8.5Q666 -15 523 -15Q372 -15 262.5 9Q153 33 94 90Q35 147 35 244Q35 340 92.5 397.5Q150 455 259 480Q368 505 523 505Q675 505 772 478Q869 451 915 390.5Q961 330 959 227L279 227Q284 201 307.5 179Q331 157 380.5 143.5Q430 130 513 130Q599 130 654.5 142Q710 154 721 176ZM513 360Q407 360 351.5 337Q296 314 286 291L726 291Q719 317 670 338.5Q621 360 513 360Z"/>
    <path transform="translate(89.32 0) scale(0.04462 -0.04462)" fill="currentColor" d="M721 176L957 176Q948 118 899.5 75Q851 32 758.5 8.5Q666 -15 523 -15Q372 -15 262.5 9Q153 33 94 90Q35 147 35 244Q35 340 92.5 397.5Q150 455 259 480Q368 505 523 505Q675 505 772 478Q869 451 915 390.5Q961 330 959 227L279 227Q284 201 307.5 179Q331 157 380.5 143.5Q430 130 513 130Q599 130 654.5 142Q710 154 721 176ZM513 360Q407 360 351.5 337Q296 314 286 291L726 291Q719 317 670 338.5Q621 360 513 360Z"/>
    <path transform="translate(132.95 0) scale(0.04462 -0.04462)" fill="currentColor" d="M45 490L285 490L285 0L45 0ZM645 505Q704 505 759 492.5Q814 480 857.5 450Q901 420 927 368Q953 316 953 237L953 0L713 0L713 207Q713 282 674 313.5Q635 345 533 345Q479 345 428.5 333Q378 321 338 304.5Q298 288 275 272L273 310Q277 328 300.5 360.5Q324 393 369 426Q414 459 482.5 482Q551 505 645 505Z"/>
  </g>
  <g transform="translate(303.16 62.5)">
    <path transform="translate(0.00 0) scale(0.04462 -0.04462)" fill="var(--tp-accent, #4ade80)" d="M302 165L302 340L801 340Q831 340 851.5 349.5Q872 359 872 390Q872 422 851.5 431Q831 440 801 440L318 440L318 0L68 0L68 640L762 640Q837 640 902.5 629.5Q968 619 1017 592Q1066 565 1094 516Q1122 467 1122 390Q1122 313 1094 268Q1066 223 1017 201Q968 179 902.5 172Q837 165 762 165Z"/>
    <path transform="translate(51.80 0) scale(0.04462 -0.04462)" fill="var(--tp-accent, #4ade80)" d="M309 747L309 597L55 597L55 747ZM62 490L302 490L302 0L62 0Z"/>
    <path transform="translate(67.32 0) scale(0.04462 -0.04462)" fill="var(--tp-accent, #4ade80)" d="M60 690L300 690L300 0L60 0Z"/>
    <path transform="translate(82.67 0) scale(0.04462 -0.04462)" fill="var(--tp-accent, #4ade80)" d="M510 -15Q351 -15 245.5 11Q140 37 87.5 94Q35 151 35 244Q35 337 87.5 394.5Q140 452 245.5 478.5Q351 505 510 505Q668 505 772.5 478.5Q877 452 929 394.5Q981 337 981 244Q981 151 929 94Q877 37 772.5 11Q668 -15 510 -15ZM510 130Q584 130 634 142.5Q684 155 710 180.5Q736 206 736 244Q736 282 710.5 308Q685 334 635 347Q585 360 510 360Q436 360 384.5 347Q333 334 306.5 308.5Q280 283 280 244Q280 206 306 180.5Q332 155 383.5 142.5Q435 130 510 130Z"/>
    <path transform="translate(127.29 0) scale(0.04462 -0.04462)" fill="var(--tp-accent, #4ade80)" d="M20 490L608 490L608 340L20 340ZM194 640L434 640L434 0L194 0Z"/>
  </g>
</svg>
